{
    "asset" : {
        "generator" : "Khronos glTF Blender I/O v3.2.43",
        "version" : "2.0"
    },
    "extensionsUsed" : [
        "KHR_materials_unlit"
    ],
    "scene" : 0,
    "scenes" : [
        {
            "name" : "Scene",
            "nodes" : [
                0,
                1,
                2
            ]
        }
    ],
    "nodes" : [
        {
            "mesh" : 0,
            "name" : "skydome",
            "scale" : [
                10.702767372131348,
                15.661819458007812,
                10.702773094177246
            ],
            "translation" : [
                0,
                -23.600000381469727,
                0
            ]
        },
        {
            "mesh" : 1,
            "name" : "ring",
            "rotation" : [
                0,
                0.7071068286895752,
                0,
                0.7071067094802856
            ],
            "translation" : [
                0,
                6.0754828453063965,
                34
            ]
        },
        {
            "mesh" : 2,
            "name" : "island",
            "rotation" : [
                0,
                0.2557181417942047,
                0,
                0.9667513966560364
            ],
            "scale" : [
                4.458086013793945,
                4.050056457519531,
                4.4627604484558105
            ]
        }
    ],
    "materials" : [
        {
            "extensions" : {
                "KHR_materials_unlit" : {}
            },
            "name" : "PolygonStarter_SimpleSky_01",
            "pbrMetallicRoughness" : {
                "baseColorTexture" : {
                    "index" : 0
                },
                "metallicFactor" : 0,
                "roughnessFactor" : 0.9
            }
        },
        {
            "name" : "PolygonStarter_Mat_01",
            "pbrMetallicRoughness" : {
                "baseColorTexture" : {
                    "index" : 1
                },
                "metallicFactor" : 0,
                "roughnessFactor" : 0.800000011920929
            }
        },
        {
            "emissiveFactor" : [
                0.3185468316078186,
                0.20852595567703247,
                0.07544243335723877
            ],
            "name" : "PolygonStarter_Clouds_Mat",
            "pbrMetallicRoughness" : {
                "metallicFactor" : 0
            }
        },
        {
            "doubleSided" : true,
            "name" : "water_Mat",
            "pbrMetallicRoughness" : {
                "baseColorFactor" : [
                    0.37037375569343567,
                    0.782762885093689,
                    0.8000000715255737,
                    1
                ],
                "metallicFactor" : 0,
                "roughnessFactor" : 0.5
            }
        }
    ],
    "meshes" : [
        {
            "name" : "skydome",
            "primitives" : [
                {
                    "attributes" : {
                        "POSITION" : 0,
                        "NORMAL" : 1,
                        "TEXCOORD_0" : 2
                    },
                    "indices" : 3,
                    "material" : 0
                }
            ]
        },
        {
            "name" : "ring",
            "primitives" : [
                {
                    "attributes" : {
                        "POSITION" : 4,
                        "NORMAL" : 5,
                        "TEXCOORD_0" : 6
                    },
                    "indices" : 7,
                    "material" : 1
                }
            ]
        },
        {
            "name" : "island",
            "primitives" : [
                {
                    "attributes" : {
                        "POSITION" : 8,
                        "NORMAL" : 9,
                        "TEXCOORD_0" : 10,
                        "TEXCOORD_1" : 11
                    },
                    "indices" : 12,
                    "material" : 1
                },
                {
                    "attributes" : {
                        "POSITION" : 13,
                        "NORMAL" : 14,
                        "TEXCOORD_0" : 15,
                        "TEXCOORD_1" : 16
                    },
                    "indices" : 17,
                    "material" : 2
                },
                {
                    "attributes" : {
                        "POSITION" : 18,
                        "NORMAL" : 19,
                        "TEXCOORD_0" : 20,
                        "TEXCOORD_1" : 21
                    },
                    "indices" : 22,
                    "material" : 3
                }
            ]
        }
    ],
    "textures" : [
        {
            "sampler" : 0,
            "source" : 0
        },
        {
            "sampler" : 0,
            "source" : 1
        }
    ],
    "images" : [
        {
            "mimeType" : "image/jpeg",
            "name" : "Simple_Sky_Texture_01",
            "uri" : "Simple_Sky_Texture_01.jpg"
        },
        {
            "mimeType" : "image/jpeg",
            "name" : "PolygonStarter_Texture_01",
            "uri" : "PolygonStarter_Texture_01.jpg"
        }
    ],
    "accessors" : [
        {
            "bufferView" : 0,
            "componentType" : 5126,
            "count" : 91,
            "max" : [
                32.94014358520508,
                26.128482818603516,
                32.94014358520508
            ],
            "min" : [
                -32.94014358520508,
                0,
                -32.94014358520508
            ],
            "type" : "VEC3"
        },
        {
            "bufferView" : 1,
            "componentType" : 5126,
            "count" : 91,
            "type" : "VEC3"
        },
        {
            "bufferView" : 2,
            "componentType" : 5126,
            "count" : 91,
            "type" : "VEC2"
        },
        {
            "bufferView" : 3,
            "componentType" : 5123,
            "count" : 480,
            "type" : "SCALAR"
        },
        {
            "bufferView" : 4,
            "componentType" : 5126,
            "count" : 384,
            "max" : [
                0.5000025629997253,
                0.5000025629997253,
                0.019994571805000305
            ],
            "min" : [
                -0.5000025629997253,
                -0.5000025629997253,
                -0.019994571805000305
            ],
            "type" : "VEC3"
        },
        {
            "bufferView" : 5,
            "componentType" : 5126,
            "count" : 384,
            "type" : "VEC3"
        },
        {
            "bufferView" : 6,
            "componentType" : 5126,
            "count" : 384,
            "type" : "VEC2"
        },
        {
            "bufferView" : 7,
            "componentType" : 5123,
            "count" : 576,
            "type" : "SCALAR"
        },
        {
            "bufferView" : 8,
            "componentType" : 5126,
            "count" : 52445,
            "max" : [
                16.439029693603516,
                5.544921875,
                16.26340103149414
            ],
            "min" : [
                -19.458446502685547,
                -0.20987360179424286,
                -17.16243553161621
            ],
            "type" : "VEC3"
        },
        {
            "bufferView" : 9,
            "componentType" : 5126,
            "count" : 52445,
            "type" : "VEC3"
        },
        {
            "bufferView" : 10,
            "componentType" : 5126,
            "count" : 52445,
            "type" : "VEC2"
        },
        {
            "bufferView" : 11,
            "componentType" : 5126,
            "count" : 52445,
            "type" : "VEC2"
        },
        {
            "bufferView" : 12,
            "componentType" : 5123,
            "count" : 62985,
            "type" : "SCALAR"
        },
        {
            "bufferView" : 13,
            "componentType" : 5126,
            "count" : 35351,
            "max" : [
                29.905118942260742,
                12.35637092590332,
                25.485027313232422
            ],
            "min" : [
                -34.417396545410156,
                5.776798248291016,
                -33.38671875
            ],
            "type" : "VEC3"
        },
        {
            "bufferView" : 14,
            "componentType" : 5126,
            "count" : 35351,
            "type" : "VEC3"
        },
        {
            "bufferView" : 15,
            "componentType" : 5126,
            "count" : 35351,
            "type" : "VEC2"
        },
        {
            "bufferView" : 16,
            "componentType" : 5126,
            "count" : 35351,
            "type" : "VEC2"
        },
        {
            "bufferView" : 17,
            "componentType" : 5123,
            "count" : 43368,
            "type" : "SCALAR"
        },
        {
            "bufferView" : 18,
            "componentType" : 5126,
            "count" : 32,
            "max" : [
                78.75382232666016,
                0.06540098041296005,
                78.67134094238281
            ],
            "min" : [
                -78.75382232666016,
                0.06540098041296005,
                -78.67134094238281
            ],
            "type" : "VEC3"
        },
        {
            "bufferView" : 19,
            "componentType" : 5126,
            "count" : 32,
            "type" : "VEC3"
        },
        {
            "bufferView" : 20,
            "componentType" : 5126,
            "count" : 32,
            "type" : "VEC2"
        },
        {
            "bufferView" : 21,
            "componentType" : 5126,
            "count" : 32,
            "type" : "VEC2"
        },
        {
            "bufferView" : 22,
            "componentType" : 5123,
            "count" : 90,
            "type" : "SCALAR"
        }
    ],
    "bufferViews" : [
        {
            "buffer" : 0,
            "byteLength" : 1092,
            "byteOffset" : 0
        },
        {
            "buffer" : 0,
            "byteLength" : 1092,
            "byteOffset" : 1092
        },
        {
            "buffer" : 0,
            "byteLength" : 728,
            "byteOffset" : 2184
        },
        {
            "buffer" : 0,
            "byteLength" : 960,
            "byteOffset" : 2912
        },
        {
            "buffer" : 0,
            "byteLength" : 4608,
            "byteOffset" : 3872
        },
        {
            "buffer" : 0,
            "byteLength" : 4608,
            "byteOffset" : 8480
        },
        {
            "buffer" : 0,
            "byteLength" : 3072,
            "byteOffset" : 13088
        },
        {
            "buffer" : 0,
            "byteLength" : 1152,
            "byteOffset" : 16160
        },
        {
            "buffer" : 0,
            "byteLength" : 629340,
            "byteOffset" : 17312
        },
        {
            "buffer" : 0,
            "byteLength" : 629340,
            "byteOffset" : 646652
        },
        {
            "buffer" : 0,
            "byteLength" : 419560,
            "byteOffset" : 1275992
        },
        {
            "buffer" : 0,
            "byteLength" : 419560,
            "byteOffset" : 1695552
        },
        {
            "buffer" : 0,
            "byteLength" : 125970,
            "byteOffset" : 2115112
        },
        {
            "buffer" : 0,
            "byteLength" : 424212,
            "byteOffset" : 2241084
        },
        {
            "buffer" : 0,
            "byteLength" : 424212,
            "byteOffset" : 2665296
        },
        {
            "buffer" : 0,
            "byteLength" : 282808,
            "byteOffset" : 3089508
        },
        {
            "buffer" : 0,
            "byteLength" : 282808,
            "byteOffset" : 3372316
        },
        {
            "buffer" : 0,
            "byteLength" : 86736,
            "byteOffset" : 3655124
        },
        {
            "buffer" : 0,
            "byteLength" : 384,
            "byteOffset" : 3741860
        },
        {
            "buffer" : 0,
            "byteLength" : 384,
            "byteOffset" : 3742244
        },
        {
            "buffer" : 0,
            "byteLength" : 256,
            "byteOffset" : 3742628
        },
        {
            "buffer" : 0,
            "byteLength" : 256,
            "byteOffset" : 3742884
        },
        {
            "buffer" : 0,
            "byteLength" : 180,
            "byteOffset" : 3743140
        }
    ],
    "samplers" : [
        {
            "magFilter" : 9729,
            "minFilter" : 9987
        }
    ],
    "buffers" : [
        {
            "byteLength" : 3743320,
            "uri" : "scene.bin"
        }
    ]
}
